<svg width="41" height="41" xmlns="http://www.w3.org/2000/svg"><g fill="none"><rect fill="#FFF" width="41" height="41" rx="20.5"/><path d="M15 9.508A.515.515 0 0 1 15.485 9h2.833c.264.01.476.232.485.508v7.754a4.956 4.956 0 0 1 2.118-.508c2.73 0 5.079 1.844 5.079 5.623C26 25.453 23.83 28 20.946 28c-1.323.003-2.578-.616-3.418-1.687l-.308.883c-.102.294-.28.534-.537.534h-1.198a.515.515 0 0 1-.485-.508V9.508zm5.436 15.026a2.002 2.002 0 0 0 1.477-.638c.389-.413.602-.974.59-1.555a2.169 2.169 0 0 0-.6-1.528 1.972 1.972 0 0 0-1.467-.61 1.953 1.953 0 0 0-1.455.613 2.15 2.15 0 0 0-.586 1.525c-.017.578.19 1.138.576 1.552a1.98 1.98 0 0 0 1.465.641z" fill="#443E43"/><path d="M15.517 31h9.966a.555.555 0 0 1 .37.122.382.382 0 0 1 .147.31v1.158a.387.387 0 0 1-.154.297.552.552 0 0 1-.363.113h-9.966a.552.552 0 0 1-.363-.113.384.384 0 0 1-.154-.297v-1.158a.384.384 0 0 1 .146-.31.555.555 0 0 1 .37-.122z" fill="#FFC06A"/></g></svg>