<svg width="12" height="12" xmlns="http://www.w3.org/2000/svg"><path d="M1.875 1.5H.941a.188.188 0 0 0-.191.186V3h10.5V1.686a.19.19 0 0 0-.191-.186h-.934v.378a.373.373 0 0 1-.379.372h-.742a.377.377 0 0 1-.379-.372V1.5h-5.25v.378a.373.373 0 0 1-.379.372h-.742a.377.377 0 0 1-.379-.372V1.5zm1.5-.75h5.25V.372c0-.206.166-.372.379-.372h.742c.21 0 .379.17.379.372V.75h1.124a.75.75 0 0 1 .751.747v9.756a.747.747 0 0 1-.75.747H.75a.75.75 0 0 1-.75-.747V1.497C0 1.084.333.75.75.75h1.125V.372c0-.206.166-.372.379-.372h.742c.21 0 .379.17.379.372V.75zm7.875 2.625H.75v7.689a.19.19 0 0 0 .191.186H11.06a.188.188 0 0 0 .191-.186V3.375zM9 9h.75v.75H9V9zM6.75 9h.75v.75h-.75V9zM4.5 9h.75v.75H4.5V9zM2.25 9H3v.75h-.75V9zM9 6.75h.75v.75H9v-.75zm-2.25 0h.75v.75h-.75v-.75zm-2.25 0h.75v.75H4.5v-.75zm-2.25 0H3v.75h-.75v-.75zM9 4.5h.75v.75H9V4.5zm-2.25 0h.75v.75h-.75V4.5zm-2.25 0h.75v.75H4.5V4.5zm-2.25 0H3v.75h-.75V4.5zM9 .375v1.5h.75v-1.5H9zm-6.75 0v1.5H3v-1.5h-.75z" fill="#A6AEBC" fill-rule="evenodd" opacity=".5"/></svg>