<svg width="70" height="68" xmlns="http://www.w3.org/2000/svg"><defs><filter x="-7.9%" y="-11.5%" width="115.8%" height="139.6%" filterUnits="objectBoundingBox" id="a"><feOffset dy="8" in="SourceAlpha" result="shadowOffsetOuter1"/><feGaussianBlur stdDeviation="5" in="shadowOffsetOuter1" result="shadowBlurOuter1"/><feColorMatrix values="0 0 0 0 0.0392156863 0 0 0 0 0.121568627 0 0 0 0 0.266666667 0 0 0 0.1 0" in="shadowBlurOuter1" result="shadowMatrixOuter1"/><feMerge><feMergeNode in="shadowMatrixOuter1"/><feMergeNode in="SourceGraphic"/></feMerge></filter></defs><g transform="translate(10.508 2)" filter="url(#a)" fill="none" fill-rule="evenodd"><rect fill="#404252" width="49.017" height="48" rx="24"/><rect stroke="#FFF" stroke-width="2" opacity=".203" x="4.268" y="4.2" width="40.481" height="39.6" rx="19.8"/><path d="M27.783 22.4h4.895c0-3.534-3.3-6.4-6.563-6.4v4.8c0 .884.766 1.6 1.668 1.6M26.151 24h4.895c0 3.954-3.666 7.071-7.845 6.275-2.544-.485-4.604-2.496-5.099-4.991-.812-4.098 2.303-7.684 6.382-7.684v4.8c0 .884.766 1.6 1.667 1.6" fill="#FFF"/></g></svg>