<svg width="69" height="68" xmlns="http://www.w3.org/2000/svg"><defs><filter x="-7.9%" y="-11.5%" width="115.8%" height="139.6%" filterUnits="objectBoundingBox" id="a"><feOffset dy="8" in="SourceAlpha" result="shadowOffsetOuter1"/><feGaussianBlur stdDeviation="5" in="shadowOffsetOuter1" result="shadowBlurOuter1"/><feColorMatrix values="0 0 0 0 0.0392156863 0 0 0 0 0.121568627 0 0 0 0 0.266666667 0 0 0 0.1 0" in="shadowBlurOuter1" result="shadowMatrixOuter1"/><feMerge><feMergeNode in="shadowMatrixOuter1"/><feMergeNode in="SourceGraphic"/></feMerge></filter></defs><g transform="translate(10.407 2)" filter="url(#a)" fill="none" fill-rule="evenodd"><rect fill="#404252" width="48.814" height="48" rx="24"/><rect stroke="#FFF" stroke-width="2" opacity=".203" x="4.254" y="4.2" width="40.305" height="39.6" rx="19.8"/><path d="M27.661 20c0-1.765-1.46-3.2-3.254-3.2-1.795 0-3.254 1.435-3.254 3.2 0 1.765 1.46 3.2 3.254 3.2s3.254-1.435 3.254-3.2zm4.881 11.2h-4.067v-1.6h2.265c-.672-3.029-3.254-4.8-6.333-4.8-3.08 0-5.661 1.771-6.333 4.8h2.265v1.6h-4.068c0-3.644 2.102-6.362 5.078-7.462A4.758 4.758 0 0 1 19.525 20c0-2.651 2.186-4.8 4.882-4.8 2.696 0 4.881 2.149 4.881 4.8 0 1.512-.713 2.86-1.824 3.738 2.977 1.1 5.078 3.818 5.078 7.462zm-6.171-4.194l1.15 1.132-3.114 3.062-2.301-2.262 1.15-1.132 1.15 1.132 1.965-1.932z" fill="#FFF"/></g></svg>