<svg width="69" height="68" xmlns="http://www.w3.org/2000/svg"><defs><filter x="-7.9%" y="-11.5%" width="115.8%" height="139.6%" filterUnits="objectBoundingBox" id="a"><feOffset dy="8" in="SourceAlpha" result="shadowOffsetOuter1"/><feGaussianBlur stdDeviation="5" in="shadowOffsetOuter1" result="shadowBlurOuter1"/><feColorMatrix values="0 0 0 0 0.0392156863 0 0 0 0 0.121568627 0 0 0 0 0.266666667 0 0 0 0.1 0" in="shadowBlurOuter1" result="shadowMatrixOuter1"/><feMerge><feMergeNode in="shadowMatrixOuter1"/><feMergeNode in="SourceGraphic"/></feMerge></filter></defs><g transform="translate(10.407 2)" filter="url(#a)" fill="none" fill-rule="evenodd"><rect fill="#404252" width="48.814" height="48" rx="24"/><rect stroke="#FFF" stroke-width="2" opacity=".203" x="4.254" y="4.2" width="40.305" height="39.6" rx="19.8"/><path d="M30.915 23.2h-3.02a.413.413 0 0 0-.288.117l-1.14 1.121a.411.411 0 0 1-.638-.08l-1.9-3.19a.822.822 0 0 0-1.277-.16l-.406.398.006.01-1.694 1.667a.413.413 0 0 1-.288.117h-2.372v-4.8c0-.442.365-.8.814-.8h11.39c.449 0 .813.358.813.8v4.8zm0 6.4c0 .442-.364.8-.813.8h-11.39a.807.807 0 0 1-.814-.8v-4.8h3.047a.413.413 0 0 0 .288-.117l1.497-1.473a.41.41 0 0 1 .639.081c1.788 3.002 1.432 2.401 1.886 3.171.268.454.9.536 1.278.165l1.747-1.71a.406.406 0 0 1 .287-.117h2.348v4.8zm0-13.6H17.898c-.899 0-1.627.716-1.627 1.6v12.8c0 .883.728 1.6 1.627 1.6h13.017c.9 0 1.627-.717 1.627-1.6V17.6c0-.884-.728-1.6-1.627-1.6z" fill="#FFF"/></g></svg>