<svg width="79" height="79" xmlns="http://www.w3.org/2000/svg"><rect fill="#FFF" width="79" height="79" rx="23"/><path d="M29 17.99c.018-.54.422-.971.926-.99h5.41c.503.019.907.45.925.99v15.1a9.31 9.31 0 0 1 4.043-.99C45.516 32.1 50 35.692 50 43.05 50 49.04 45.857 54 40.352 54c-2.526.006-4.922-1.2-6.526-3.285l-.588 1.72c-.194.572-.536 1.04-1.024 1.04h-2.288c-.504-.02-.908-.451-.926-.99V17.99zm10.379 29.26c1.058.01 2.074-.438 2.818-1.243a4.337 4.337 0 0 0 1.126-3.027 4.27 4.27 0 0 0-1.145-2.977c-.744-.785-1.754-1.214-2.8-1.188-1.04-.023-2.043.408-2.778 1.194a4.232 4.232 0 0 0-1.118 2.97 4.3 4.3 0 0 0 1.098 3.022c.735.806 1.746 1.257 2.799 1.25z" fill="#443E43"/><path d="M29.986 60h19.028c.264-.008.52.08.707.244a.783.783 0 0 1 .278.62v2.316a.781.781 0 0 1-.293.594 1.022 1.022 0 0 1-.692.225H29.986a1.022 1.022 0 0 1-.692-.225.781.781 0 0 1-.293-.594v-2.316a.783.783 0 0 1 .278-.62c.187-.163.443-.252.707-.243z" fill="#FFC06A"/></svg>