<svg width="14" height="14" xmlns="http://www.w3.org/2000/svg"><path d="M2.012 6.885C2.503 6.83 3.52 6.755 4 7c.831.423 1.734 1.448 1.734 1.448L3.74 10.763A4.956 4.956 0 0 0 7 12a5 5 0 0 0 5-5c0-.473-.086-.922-.209-1.355-.407.475-1.232 1.084-1.232 1.084-.7-.078-.36.788-.36.788.295 1.916-.721 2.152-.721 2.152C8.093 11.092 7 8 7 8c-.256-1.721-.404-2.272-.404-2.272-1.773-1.108-.026-1.512.35-1.576h.011c.09-.013.068-.014-.011 0-.502.069-.406-.236-.71-.788-.307-.557-.682.094-.721 0-.038-.093-.215 1.02-.72 1.182-.505.162-.36-1.182-.36-1.182-.975 1.493-1.294 1.112-1.396.621a4.97 4.97 0 0 0-1.027 2.9M7 14A7 7 0 1 1 7 0a7 7 0 0 1 0 14" fill="#FFF" fill-rule="evenodd"/></svg>