<svg fill="#0A1F44" width="18" height="18" xmlns="http://www.w3.org/2000/svg"><path d="M8 11.062C8 10.476 8.496 10 9.108 10h7.784c.612 0 1.108.476 1.108 1.062v5.876c0 .586-.496 1.062-1.108 1.062H9.108C8.496 18 8 17.524 8 16.938v-5.876zm1 .211v5.454a.28.28 0 0 0 .285.273h7.43c.16 0 .285-.122.285-.273v-5.454a.281.281 0 0 0-.285-.273h-7.43a.278.278 0 0 0-.285.273zm-9-.21C0 10.475.526 10 1.172 10h4.656C6.475 10 7 10.476 7 11.062v5.876C7 17.524 6.474 18 5.828 18H1.172C.525 18 0 17.524 0 16.938v-5.876zm1 .21v5.454c0 .148.14.273.313.273h4.374c.169 0 .313-.122.313-.273v-5.454c0-.148-.14-.273-.313-.273H1.313c-.169 0-.313.122-.313.273zm11-10.21C12 .475 12.491 0 13.087 0h3.826C17.513 0 18 .476 18 1.062v5.876C18 7.524 17.509 8 16.913 8h-3.826C12.487 8 12 7.524 12 6.938V1.062zm1 .21v5.454c0 .148.129.273.288.273h3.424c.155 0 .288-.122.288-.273V1.273A.283.283 0 0 0 16.712 1h-3.424c-.155 0-.288.122-.288.273zm-13-.21C0 .475.516 0 1.156 0h8.688C10.482 0 11 .476 11 1.062v5.876C11 7.524 10.484 8 9.844 8H1.156C.518 8 0 7.524 0 6.938V1.062zm1 .21v5.454c0 .148.12.273.266.273h7.468A.27.27 0 0 0 9 6.727V1.273A.272.272 0 0 0 8.734 1H1.266A.27.27 0 0 0 1 1.273z"/></svg>