<svg width="18" height="17" xmlns="http://www.w3.org/2000/svg"><g fill="none" fill-rule="evenodd" opacity=".15"><path d="M12.644 10.692h-.782l-.277-.263a6.224 6.224 0 0 0 1.554-4.111C13.14 2.828 10.26 0 6.706 0S.273 2.828.273 6.318c0 3.49 2.88 6.318 6.433 6.318a6.473 6.473 0 0 0 4.187-1.526l.267.272v.768L16.108 17l1.475-1.448-4.939-4.86zm-5.938 0c-2.464 0-4.453-1.954-4.453-4.374s1.989-4.374 4.453-4.374c2.464 0 4.454 1.954 4.454 4.374s-1.99 4.374-4.454 4.374z" fill="#000" fill-rule="nonzero"/><path d="M-1.763-2h24.437v24H-1.763z"/></g></svg>