<svg width="20" height="21" fill="#2F4160" xmlns="http://www.w3.org/2000/svg"><path d="M17.64 11.529c.042-.336.073-.672.073-1.029 0-.357-.031-.693-.072-1.029l2.169-1.732a.537.537 0 0 0 .123-.673l-2.056-3.632a.512.512 0 0 0-.627-.232l-2.56 1.05a7.475 7.475 0 0 0-1.737-1.028L12.563.44a.505.505 0 0 0-.506-.44H7.946a.505.505 0 0 0-.504.441l-.39 2.783a7.86 7.86 0 0 0-1.738 1.029l-2.56-1.05a.497.497 0 0 0-.627.23L.071 7.066a.525.525 0 0 0 .124.673L2.364 9.47a8.502 8.502 0 0 0-.072 1.029c0 .347.03.693.072 1.029L.194 13.26a.537.537 0 0 0-.123.673l2.056 3.633c.124.23.401.314.627.23l2.56-1.05a7.49 7.49 0 0 0 1.738 1.03l.39 2.782a.505.505 0 0 0 .504.441h4.112a.505.505 0 0 0 .504-.441l.39-2.783a7.86 7.86 0 0 0 1.738-1.029l2.56 1.05c.236.095.504 0 .627-.23l2.056-3.633a.537.537 0 0 0-.123-.672l-2.17-1.733zm-7.638 2.646c-1.984 0-3.598-1.649-3.598-3.675 0-2.027 1.614-3.675 3.598-3.675 1.984 0 3.598 1.648 3.598 3.675s-1.614 3.675-3.598 3.675z"/></svg>