<svg width="12" height="12" xmlns="http://www.w3.org/2000/svg"><g fill="none" fill-rule="evenodd"><circle fill="#FFF" cx="6" cy="6" r="6"/><path d="M8.854 4.779L5.425 7.89l-.004.003a.433.433 0 0 1-.056.042l-.01.006a.417.417 0 0 1-.06.03l-.01.003a.415.415 0 0 1-.065.019h-.007a.408.408 0 0 1-.113.004l-.011-.001a.405.405 0 0 1-.032-.005l-.014-.004a.445.445 0 0 1-.028-.007L5 7.974a.421.421 0 0 1-.025-.01l-.017-.008a.423.423 0 0 1-.111-.08L4.84 7.87 3.126 6.092a.456.456 0 0 1 0-.628.418.418 0 0 1 .606 0l1.43 1.483L8.29 4.11a.418.418 0 0 1 .605.042.456.456 0 0 1-.04.627z" fill="#0EB17D" fill-rule="nonzero"/></g></svg>